HIERARCHY
ROOT Hips
{
	OFFSET 50.277100 -18.289515 96.903999
	CHANNELS 6 Xposition Yposition Zposition Xrotation Yrotation Zrotation
	JOINT spine
	{
		OFFSET 0.000000 -0.458069 7.965683
		CHANNELS 3 Xrotation Yrotation Zrotation
		JOINT spine1
		{
			OFFSET 0.000000 -0.000002 10.243103
			CHANNELS 3 Xrotation Yrotation Zrotation
			JOINT spine2
			{
				OFFSET 0.000000 -0.000002 9.814751
				CHANNELS 3 Xrotation Yrotation Zrotation
				JOINT Neck
				{
					OFFSET 0.000000 -1.201384 25.198593
					CHANNELS 3 Xrotation Yrotation Zrotation
					JOINT Head
					{
						OFFSET 0.000000 0.000000 7.613144
						CHANNELS 3 Xrotation Yrotation Zrotation
						End Site
						{
							OFFSET 0.000000 6.077326 18.428101
						}
					}
				}
				JOINT RightShoulder
				{
					OFFSET -4.132698 0.575449 10.599197
					CHANNELS 3 Xrotation Yrotation Zrotation
					JOINT RightArm
					{
						OFFSET 0.000000 -0.000002 13.901794
						CHANNELS 3 Xrotation Yrotation Zrotation
						JOINT RightArmRoll
						{
							OFFSET 0.000000 0.000000 7.017883
							CHANNELS 3 Xrotation Yrotation Zrotation
							JOINT RightForeArm
							{
								OFFSET 0.000000 -0.000004 20.440598
								CHANNELS 3 Xrotation Yrotation Zrotation
								JOINT RightForeArmRoll
								{
									OFFSET 0.000000 -0.000002 7.875168
									CHANNELS 3 Xrotation Yrotation Zrotation
									JOINT RightHand
									{
										OFFSET 0.000000 -0.000002 15.803696
										CHANNELS 3 Xrotation Yrotation Zrotation
										End Site
										{
											OFFSET 0.000000 0.000000 0.100006
										}
									}
								}
							}
						}
					}
				}
				JOINT LeftShoulder
				{
					OFFSET 4.132698 0.575449 10.599197
					CHANNELS 3 Xrotation Yrotation Zrotation
					JOINT LeftArm
					{
						OFFSET 0.000000 -0.000002 13.901794
						CHANNELS 3 Xrotation Yrotation Zrotation
						JOINT LeftArmRoll
						{
							OFFSET 0.000000 0.000000 7.017883
							CHANNELS 3 Xrotation Yrotation Zrotation
							JOINT LeftForeArm
							{
								OFFSET 0.000000 -0.000004 20.440598
								CHANNELS 3 Xrotation Yrotation Zrotation
								JOINT LeftForeArmRoll
								{
									OFFSET 0.000000 -0.000002 7.875153
									CHANNELS 3 Xrotation Yrotation Zrotation
									JOINT LeftHand
									{
										OFFSET 0.000000 -0.000002 15.803696
										CHANNELS 3 Xrotation Yrotation Zrotation
										End Site
										{
											OFFSET 0.000000 0.000000 0.100006
										}
									}
								}
							}
						}
					}
				}
			}
		}
	}
	JOINT RightUpLeg
	{
		OFFSET -7.060478 1.086100 -1.294701
		CHANNELS 3 Xrotation Yrotation Zrotation
		JOINT RightUpLegRoll
		{
			OFFSET 0.000000 -0.000004 18.530800
			CHANNELS 3 Xrotation Yrotation Zrotation
			JOINT RightLeg
			{
				OFFSET 0.000000 0.000004 -22.947601
				CHANNELS 3 Xrotation Yrotation Zrotation
				JOINT RightLegRoll
				{
					OFFSET 0.000000 -0.000004 23.022598
					CHANNELS 3 Xrotation Yrotation Zrotation
					JOINT RightFoot
					{
						OFFSET 0.000000 -0.000002 19.162498
						CHANNELS 3 Xrotation Yrotation Zrotation
						JOINT RightToeBase
						{
							OFFSET 0.000000 -0.000004 16.018799
							CHANNELS 3 Xrotation Yrotation Zrotation
							End Site
							{
								OFFSET 0.006790 0.894207 7.757812
							}
						}
					}
				}
			}
		}
	}
	JOINT LeftUpLeg
	{
		OFFSET 7.060478 1.086100 -1.294701
		CHANNELS 3 Xrotation Yrotation Zrotation
		JOINT LeftUpLegRoll
		{
			OFFSET 0.000000 -0.000004 18.530899
			CHANNELS 3 Xrotation Yrotation Zrotation
			JOINT LeftLeg
			{
				OFFSET 0.000000 -0.000004 22.947495
				CHANNELS 3 Xrotation Yrotation Zrotation
				JOINT LeftLegRoll
				{
					OFFSET 0.000000 -0.000004 23.235504
					CHANNELS 3 Xrotation Yrotation Zrotation
					JOINT LeftFoot
					{
						OFFSET 0.000000 -0.000002 18.949600
						CHANNELS 3 Xrotation Yrotation Zrotation
						JOINT LeftToeBase
						{
							OFFSET 0.000000 -0.000004 16.018799
							CHANNELS 3 Xrotation Yrotation Zrotation
							End Site
							{
								OFFSET -0.030430 0.894205 7.757812
							}
						}
					}
				}
			}
		}
	}
}
MOTION
Frames: 13
Frame Time: 0.041667
46.619400 -13.942012 96.521706 -4.979487 -2.018201 12.124595 0.141303 -0.321304 -0.000939 4.285781 -0.641852 0.000065 5.930914 -0.641807 0.007750 12.217104 11.172350 4.459472 11.876530 -7.742497 5.598071 0.559547 -56.603847 0.924340 287.160468 -140.219494 280.284053 0.000002 0.000001 0.000009 108.657204 -1.054167 -6.386820 0.000004 0.000009 -2.999989 -5.000014 -7.999896 0.000004 -24.699451 58.469821 29.229378 -69.442076 132.466150 100.350833 0.000000 -0.000003 0.000007 130.303794 -2.884414 23.757698 -0.000003 -0.000007 2.999988 -4.999837 7.999685 -0.000008 5.171296 -175.034184 5.323062 -179.999991 0.000005 -1.266996 171.619937 -1.865878 -0.633818 -0.000004 0.000005 0.143315 69.700831 6.933001 1.976017 25.455867 -7.342884 0.002784 -3.197777 172.606407 -0.549624 -0.000005 -0.000005 -1.323369 -11.590620 -1.186577 0.196410 -0.000005 0.000002 -0.018615 67.306972 -7.029292 -1.897227 25.456878 7.346174 0.000010 
46.621101 -13.961011 96.521606 -4.990362 -1.994727 11.945557 0.130505 -0.323627 -0.002925 4.264163 -0.646674 -0.003387 5.909298 -0.646670 0.004357 12.439947 11.172975 4.417535 11.758880 -7.752150 5.570642 0.542636 -56.772126 0.882783 287.394498 -139.651223 279.738102 0.000001 0.000000 0.000013 109.359429 -0.932162 -6.782006 0.000005 0.000007 -2.999989 -5.000015 -7.999893 0.000004 -24.534091 58.541913 29.030145 -69.525479 132.340461 100.239283 0.000003 -0.000006 0.000007 130.410919 -2.867320 23.735478 -0.000003 -0.000007 2.999991 -4.999836 7.999687 -0.000007 5.136533 -175.032914 5.310654 -179.999991 0.000005 -1.268006 171.587999 -1.850887 -0.635657 -0.000003 0.000004 0.143320 69.685668 6.933611 1.975673 25.455968 -7.342886 0.003641 -3.132130 172.577966 -0.594280 -0.000005 -0.000005 -1.324649 -11.586024 -1.163615 0.198429 -0.000005 0.000003 -0.019646 67.317019 -7.029178 -1.897163 25.456880 7.346184 0.000007 
46.623795 -13.997412 96.527206 -5.002689 -1.971248 11.765579 0.120517 -0.326047 -0.005234 4.244145 -0.651680 -0.007530 5.889282 -0.651725 0.000272 12.652679 11.168477 4.376833 11.648123 -7.755691 5.542922 0.520332 -56.939421 0.835107 287.636478 -139.087131 279.210702 0.000001 -0.000001 0.000010 110.047666 -0.808722 -7.183049 0.000005 0.000011 -2.999990 -5.000012 -7.999892 0.000005 -24.364823 58.610823 28.826462 -69.605071 132.215510 100.122746 0.000001 -0.000006 0.000009 130.516569 -2.849413 23.711857 -0.000003 -0.000005 2.999992 -4.999841 7.999686 -0.000007 5.103386 -175.031684 5.298611 -179.999991 0.000005 -1.269003 171.556935 -1.836889 -0.637611 -0.000004 0.000005 0.143302 69.670177 6.934206 1.975349 25.456371 -7.342888 0.004745 -3.064359 172.550550 -0.640076 -0.000005 -0.000005 -1.325950 -11.581225 -1.139984 0.200534 -0.000005 0.000002 -0.020756 67.327367 -7.029020 -1.897170 25.456878 7.346184 0.000005 
46.626099 -14.010211 96.522499 -5.016627 -1.947945 11.585040 0.111461 -0.328521 -0.007909 4.225958 -0.656781 -0.012476 5.871086 -0.656885 -0.004611 12.853596 11.157690 4.337460 11.545845 -7.751871 5.514792 0.491376 -57.106040 0.779722 287.889222 -138.527110 278.706388 -0.000001 -0.000002 0.000010 110.723083 -0.684571 -7.587840 0.000004 0.000009 -2.999990 -5.000011 -7.999892 0.000006 -24.191220 58.675662 28.617844 -69.681098 132.091692 100.002111 -0.000000 -0.000008 0.000008 130.620278 -2.831914 23.685301 -0.000002 -0.000004 2.999990 -4.999837 7.999687 -0.000004 5.072250 -175.030441 5.287113 -179.999991 0.000005 -1.270001 171.526964 -1.821910 -0.638358 -0.000003 0.000005 0.143261 69.654693 6.934793 1.974923 25.456982 -7.342896 0.006094 -2.994349 172.522109 -0.686623 -0.000005 -0.000005 -1.327260 -11.576027 -1.115848 0.202726 -0.000004 0.000002 -0.021940 67.337927 -7.028875 -1.897067 25.456878 7.346196 0.000001 
46.636002 -14.027513 96.529106 -5.032326 -1.925006 11.404421 0.103447 -0.331008 -0.010987 4.209831 -0.661890 -0.018323 5.854962 -0.662062 -0.010398 13.041001 11.139457 4.299561 11.453525 -7.739421 5.486061 0.454482 -57.272687 0.715025 288.155408 -137.971365 278.229641 -0.000003 -0.000001 0.000014 111.386916 -0.559506 -7.992346 0.000004 0.000007 -2.999988 -5.000015 -7.999894 0.000004 -24.012818 58.735980 28.403827 -69.752562 131.969486 99.876886 0.000000 -0.000005 0.000008 130.721584 -2.814170 23.656572 -0.000003 -0.000008 2.999991 -4.999838 7.999688 -0.000005 5.043555 -175.028228 5.276403 -179.999991 0.000005 -1.270998 171.498182 -1.806939 -0.640062 -0.000004 0.000004 0.143199 69.638908 6.935431 1.974525 25.457893 -7.342904 0.007730 -2.922005 172.493654 -0.733654 -0.000005 -0.000004 -1.328580 -11.570527 -1.091358 0.205002 -0.000005 0.000002 -0.023203 67.348589 -7.028702 -1.897049 25.456878 7.346195 0.000011 
46.635502 -14.049513 96.528595 -5.049952 -1.902612 11.224403 0.096604 -0.333464 -0.014508 4.196005 -0.666913 -0.025172 5.841138 -0.667168 -0.017185 13.212907 11.112839 4.263251 11.372657 -7.717132 5.456557 0.408336 -57.439548 0.639376 288.438725 -137.420524 277.786280 0.000002 -0.000002 0.000013 112.040333 -0.433855 -8.395505 0.000005 0.000009 -2.999991 -5.000012 -7.999894 0.000005 -23.829362 58.791106 28.184091 -69.820653 131.848797 99.749203 -0.000000 -0.000003 0.000006 130.819884 -2.796160 23.625619 -0.000003 -0.000008 2.999990 -4.999839 7.999680 -0.000007 5.017716 -175.025045 5.266653 -179.999991 0.000005 -1.271995 171.470820 -1.792962 -0.641854 -0.000004 0.000004 0.143114 69.623199 6.935999 1.974109 25.458999 -7.342911 0.009657 -2.847186 172.466211 -0.780938 -0.000004 -0.000004 -1.329911 -11.564732 -1.066681 0.207350 -0.000004 0.000001 -0.024544 67.359360 -7.028537 -1.896931 25.456882 7.346198 0.000008 
46.635300 -14.072010 96.529701 -5.070265 -1.880189 11.044311 0.091056 -0.336110 -0.018434 4.184729 -0.672301 -0.032909 5.829864 -0.672648 -0.024859 13.368871 11.077406 4.229088 11.303426 -7.684260 5.426678 0.353528 -57.605515 0.553688 288.750591 -136.872374 277.381250 0.000001 -0.000003 0.000014 112.681599 -0.301561 -8.805516 0.000007 0.000011 -2.999989 -5.000013 -7.999892 0.000005 -23.640311 58.840461 27.958022 -69.880376 131.730020 99.612333 -0.000000 -0.000007 0.000008 130.916777 -2.777967 23.593514 -0.000002 -0.000007 2.999991 -4.999839 7.999689 -0.000007 4.995585 -175.022887 5.257389 -179.999991 0.000005 -1.273005 171.445275 -1.778010 -0.643413 -0.000004 0.000004 0.142997 69.607093 6.936613 1.973529 25.460713 -7.342915 0.012176 -2.768834 172.437743 -0.829872 -0.000004 -0.000004 -1.331290 -11.558236 -1.041253 0.209808 -0.000005 0.000001 -0.025979 67.370322 -7.028349 -1.896894 25.456880 7.346209 0.000004 
46.645302 -14.105412 96.532806 -5.093662 -1.857073 10.863297 0.086783 -0.339160 -0.022696 4.175934 -0.678483 -0.041330 5.821070 -0.678932 -0.033207 13.510871 11.034078 4.197313 11.244343 -7.641733 5.396927 0.291871 -57.768674 0.460352 289.097975 -136.325863 277.014386 0.000001 -0.000003 0.000009 113.308590 -0.157878 -9.230432 0.000005 0.000010 -2.999990 -5.000013 -7.999896 0.000004 -23.445502 58.884297 27.725451 -69.933077 131.611530 99.467095 0.000000 -0.000004 0.000007 131.013847 -2.759682 23.558359 -0.000003 -0.000005 2.999992 -4.999841 7.999686 -0.000007 4.977356 -175.021753 5.248185 -179.999991 0.000005 -1.275000 171.421779 -1.763068 -0.644913 -0.000005 0.000004 0.142837 69.590229 6.937228 1.972995 25.462940 -7.342925 0.015430 -2.686269 172.407253 -0.881853 -0.000005 -0.000005 -1.332740 -11.550734 -1.014484 0.212402 -0.000005 0.000001 -0.027523 67.381729 -7.028204 -1.896735 25.456880 7.346209 0.000012 
46.651501 -14.122214 96.532799 -5.119715 -1.833301 10.681275 0.083627 -0.342555 -0.027273 4.169349 -0.685348 -0.050408 5.814489 -0.685903 -0.042200 13.640179 10.984097 4.167664 11.194146 -7.590773 5.367296 0.223891 -57.929505 0.359983 289.475438 -135.781975 276.679898 0.000004 -0.000002 0.000011 113.921593 -0.004465 -9.668066 0.000005 0.000006 -2.999989 -5.000014 -7.999892 0.000003 -23.245775 58.923359 27.487319 -69.976634 131.494092 99.310384 -0.000000 -0.000007 0.000010 131.110863 -2.740648 23.521877 -0.000003 -0.000005 2.999990 -4.999839 7.999685 -0.000005 4.962355 -175.020647 5.239129 -179.999991 0.000005 -1.275997 171.399923 -1.747150 -0.646186 -0.000004 0.000005 0.142641 69.572867 6.937850 1.972395 25.465566 -7.342930 0.019282 -2.600008 172.374754 -0.936512 -0.000004 -0.000005 -1.334239 -11.542535 -0.986481 0.215117 -0.000005 0.000001 -0.029164 67.393545 -7.028057 -1.896649 25.456887 7.346219 0.000010 
46.649998 -14.131910 96.532211 -5.148027 -1.808948 10.497857 0.081463 -0.346238 -0.032155 4.164685 -0.692781 -0.060110 5.809818 -0.693452 -0.051812 13.758270 10.928195 4.139986 11.151750 -7.532588 5.337808 0.150130 -58.088013 0.253184 289.878884 -135.242431 276.374179 0.000001 -0.000002 0.000011 114.520628 0.156883 -10.119086 0.000006 0.000008 -2.999989 -5.000017 -7.999892 0.000006 -23.041392 58.958213 27.243987 -70.015497 131.376763 99.147702 -0.000002 -0.000007 0.000007 131.207620 -2.722151 23.482556 -0.000001 -0.000006 2.999990 -4.999838 7.999684 -0.000003 4.949933 -175.020538 5.230138 -179.999991 0.000005 -1.276994 171.379418 -1.732226 -0.647569 -0.000004 0.000005 0.142412 69.554958 6.938481 1.971830 25.468703 -7.342941 0.023636 -2.510559 172.341273 -0.993540 -0.000004 -0.000005 -1.335781 -11.533632 -0.957354 0.217946 -0.000005 0.000002 -0.030899 67.405778 -7.027869 -1.896632 25.456882 7.346228 0.000006 
46.660500 -14.148713 96.537193 -5.178144 -1.784044 10.312950 0.080134 -0.350152 -0.037330 4.161672 -0.700669 -0.070404 5.806817 -0.701463 -0.062010 13.866828 10.867573 4.113905 11.115888 -7.468407 5.308432 0.071114 -58.244377 0.140591 290.301782 -134.708256 276.090480 0.000004 -0.000001 0.000014 115.105831 0.324183 -10.581178 0.000005 0.000006 -2.999989 -5.000013 -7.999894 0.000006 -22.833121 58.989543 26.996306 -70.048603 131.259884 98.977412 0.000002 -0.000007 0.000009 131.303802 -2.702863 23.440888 -0.000001 -0.000007 2.999993 -4.999836 7.999682 -0.000005 4.939434 -175.021466 5.221224 -179.999991 0.000005 -1.279004 171.359993 -1.716308 -0.648756 -0.000004 0.000004 0.142156 69.536530 6.939116 1.971297 25.472035 -7.342948 0.028331 -2.418447 172.305770 -1.052532 -0.000005 -0.000004 -1.337361 -11.524230 -0.927199 0.220877 -0.000005 0.000002 -0.032720 67.418352 -7.027748 -1.896505 25.456882 7.346228 0.000005 
46.671398 -14.177911 96.542694 -5.209671 -1.758670 10.126474 0.079506 -0.354240 -0.042779 4.160039 -0.708900 -0.081263 5.805176 -0.709824 -0.072769 13.967218 10.802960 4.089268 11.085472 -7.399438 5.279179 -0.012592 -58.399005 0.022826 290.739324 -134.180801 275.824185 -0.000001 -0.000002 0.000008 115.677245 0.495321 -11.052884 0.000005 0.000010 -2.999989 -5.000013 -7.999892 0.000005 -22.621616 59.017923 26.745001 -70.078205 131.143033 98.801965 0.000002 -0.000004 0.000006 131.399384 -2.683445 23.398138 -0.000003 -0.000008 2.999990 -4.999841 7.999687 -0.000005 4.930219 -175.021398 5.212534 -179.999991 0.000005 -1.280000 171.341320 -1.700409 -0.649901 -0.000004 0.000004 0.141875 69.517795 6.939766 1.970588 25.475567 -7.342954 0.033265 -2.324171 172.270280 -1.113199 -0.000005 -0.000005 -1.338951 -11.514527 -0.896125 0.223896 -0.000005 0.000001 -0.034615 67.431323 -7.027590 -1.896445 25.456883 7.346236 0.000011 
46.671700 -14.195914 96.542702 -5.242176 -1.732876 9.938235 0.079436 -0.358444 -0.048491 4.159517 -0.717362 -0.092656 5.804658 -0.718422 -0.084060 14.060931 10.735564 4.065737 11.059228 -7.326892 5.250013 -0.100430 -58.551865 -0.099454 291.186100 -133.661393 275.570566 0.000002 -0.000002 0.000007 116.234848 0.669396 -11.532979 0.000008 0.000008 -2.999991 -5.000015 -7.999893 0.000003 -22.407335 59.044205 26.490653 -70.105622 131.026196 98.622748 0.000000 -0.000003 0.000007 131.493941 -2.663886 23.353245 -0.000003 -0.000006 2.999991 -4.999840 7.999682 -0.000005 4.921615 -175.021330 5.203997 -179.999991 0.000004 -1.281994 171.323110 -1.685499 -0.651185 -0.000004 0.000004 0.141573 69.498732 6.940429 1.970002 25.479210 -7.342960 0.038297 -2.228250 172.233807 -1.175123 -0.000005 -0.000004 -1.340549 -11.504729 -0.864238 0.226996 -0.000004 0.000002 -0.036583 67.444717 -7.027386 -1.896450 25.456885 7.346248 0.000007 
